<svg xmlns:xlink="http://www.w3.org/1999/xlink" xmlns="http://www.w3.org/2000/svg" width="56" height="56" viewBox="0 0 56 56" alt="Carrito" class="sc-JAcba bXmbGq"><g fill="none" fill-rule="evenodd"><g fill="#D68227" fill-rule="nonzero"><path d="M43 135c15.464 0 28 12.536 28 28s-12.536 28-28 28-28-12.536-28-28 12.536-28 28-28zm0 2c-14.36 0-26 11.64-26 26s11.64 26 26 26 26-11.64 26-26-11.64-26-26-26zm-11.6 11.8c.508 0 .947.366 1.059.883l1.398 6.464h24.259c.35 0 .68.178.882.476.205.299.257.683.142 1.029l-4.135 12.461c-.15.455-.562.762-1.023.762h-16.94l.617 2.844h13.954c.03 0 .058.017.088.02.06-.003.116-.02.177-.02 1.868 0 3.386 1.589 3.386 3.541 0 1.953-1.518 3.54-3.386 3.54-1.869 0-3.389-1.587-3.389-3.54 0-.45.089-.876.236-1.274h-8.999c.148.398.236.824.236 1.274 0 1.953-1.518 3.54-3.387 3.54-1.868 0-3.388-1.587-3.388-3.54 0-1.549.963-2.855 2.29-3.334l-4.943-22.859h-3.85c-.598 0-1.084-.508-1.084-1.133 0-.628.486-1.134 1.085-1.134zm20.478 27.186c-.673 0-1.22.572-1.22 1.274 0 .702.547 1.273 1.22 1.273.672 0 1.217-.571 1.217-1.273s-.545-1.274-1.217-1.274zm-15.303 0c-.672 0-1.219.572-1.219 1.274 0 .702.547 1.273 1.22 1.273.67 0 1.217-.571 1.217-1.273s-.547-1.274-1.218-1.274zm20.017-17.572H34.347l2.205 10.194H53.21l3.383-10.194z" transform="translate(-15 -135)" fill="#D68227"></path></g></g></svg>