<svg xmlns:xlink="http://www.w3.org/1999/xlink" xmlns="http://www.w3.org/2000/svg" width="42" height="25" viewBox="0 0 42 25" alt="envío" style="color: rgb(32, 128, 65); height: 46px; width: 46px;"><g fill="none" fill-rule="evenodd"><g fill="#208041"><path d="M38.268 18.24l-.033-.08c-.636-1.546-2.1-2.545-3.725-2.545l-.232.007c-1.553.094-2.892 1.08-3.49 2.574l-.031.08h-.813l-.006-6.13h9.493l.001 6.095h-1.164zm-3.75 3.93c-1.25 0-2.268-1.06-2.268-2.363s1.019-2.363 2.269-2.363c1.25 0 2.268 1.06 2.268 2.363s-1.018 2.363-2.268 2.363zM29.932 5.4l5.59.001 3.195 5.089h-8.779l-.006-5.09zm-7.827 12.815l-.033-.08c-.643-1.53-2.098-2.521-3.706-2.521-1.62 0-3.079 1-3.716 2.545l-.033.08h-1.552L13.063 1.79h15.125v.133l.018 16.295-6.102-.001zm-3.74 3.954c-1.25 0-2.267-1.06-2.267-2.363s1.016-2.363 2.268-2.363c1.25 0 2.267 1.06 2.267 2.363s-1.017 2.363-2.267 2.363zM41.14 11.268l-.002-.036c-.01-.088-.552-1.027-4.434-7.202l-.079-.104c-.155-.182-.387-.29-.633-.29H29.93L29.906.72c-.073-.413-.432-.72-.851-.72L12.098.015c-.238.045-.46.203-.58.423-.094.149-.141.315-.141.488l.015 18.368c.072.408.42.713.828.713h2.108l.008.123c.16 2.17 1.93 3.87 4.029 3.87 2.098 0 3.867-1.7 4.027-3.87l.008-.123h8.082l.01.123c.16 2.17 1.929 3.87 4.027 3.87 2.099 0 3.868-1.7 4.027-3.87l.01-.123 1.894-.016c.398-.074.693-.44.693-.866 0-.314-.004-7.621-.003-7.857zM8.793 14.676c.826.003 1.493.627 1.493 1.4 0 .771-.667 1.395-1.493 1.395h-.002l-2.344-.008c-.826 0-1.494-.624-1.494-1.4 0-.768.668-1.387 1.494-1.387zm0-6.189c.826.003 1.493.627 1.493 1.4 0 .77-.667 1.395-1.493 1.395h-.002l-5.253-.008c-.825 0-1.492-.624-1.492-1.4 0-.768.667-1.387 1.492-1.387zm.159-6.189c.738.003 1.334.629 1.334 1.4 0 .771-.596 1.395-1.336 1.395l-7.616-.008C.596 5.085 0 4.461 0 3.685c0-.766.596-1.387 1.334-1.387z" transform="translate(-335 -327) translate(326 323.24) translate(0 4.68) translate(9.597)" fill="#208041"></path></g></g></svg>