<svg xmlns:xlink="http://www.w3.org/1999/xlink" xmlns="http://www.w3.org/2000/svg" width="34" height="32" viewBox="0 0 34 32" alt="envío-gratis" style="color: rgb(32, 128, 65); height: 36px; width: 36px;"><g fill="none" fill-rule="evenodd"><g fill="#208041"><path d="M9.508 0c3.044 0 5.752 1.444 7.494 3.676L20 1.946c.244-.143.549-.143.792 0l12.044 6.953c.247.141.4.405.4.687v13.909c0 .282-.153.544-.398.687l-12.046 6.955c-.122.07-.259.105-.396.105-.138 0-.275-.034-.397-.105L8.06 24.244v-5.347C3.504 18.196 0 14.26 0 9.51 0 4.267 4.265 0 9.508 0zm22.14 10.96l-10.46 6.038v12.077l10.46-6.038V10.96zm-14.73 4.487c-1.746 2.171-4.416 3.568-7.408 3.573-.124 0-.244-.015-.366-.02v4.037l10.459 6.038V16.998zm-7.41-13.88c-4.379 0-7.941 3.564-7.941 7.941 0 4.38 3.562 7.943 7.941 7.943 2.123 0 4.116-.826 5.616-2.327 1.5-1.499 2.327-3.493 2.327-5.614-.005-4.374-3.568-7.936-7.943-7.942zM26.3 6.957l-7.452 4.3c-.193 1.025-.547 1.991-1.041 2.872l2.59 1.495 10.456-6.038-4.553-2.63zM9.746 4.184V5.33c.713.05 1.298.2 1.753.453.453.25.868.604 1.241 1.062L11.657 8.07c-.237-.39-.51-.685-.815-.885-.307-.2-.67-.32-1.096-.365v2.002c.578.12 1.07.26 1.478.42.407.162.75.407 1.027.733.275.327.413.762.413 1.307 0 .68-.268 1.23-.802 1.656-.536.424-1.242.675-2.116.751v1.146H8.511V13.69c-.773-.05-1.42-.209-1.937-.47-.518-.264-.952-.634-1.3-1.11l1.083-1.26c.187.373.469.676.848.91.377.234.812.384 1.306.453v-1.938c-.595-.119-1.099-.254-1.51-.407-.413-.154-.757-.388-1.033-.708-.277-.318-.413-.745-.413-1.28 0-.678.26-1.253.783-1.721.523-.465 1.247-.743 2.173-.827V4.184h1.235zm0 6.357v1.645c.637-.094.955-.364.955-.815 0-.222-.08-.393-.242-.517-.161-.123-.399-.228-.713-.313zm10.65-6.993l-2.518 1.453c.7 1.295 1.103 2.768 1.131 4.333l5.704-3.293-4.317-2.493zM8.511 6.86c-.316.05-.557.154-.727.307-.17.153-.255.348-.255.585 0 .213.085.381.255.504.17.123.411.227.727.312z" transform="translate(-557 -323) translate(326 323.24) translate(214) translate(17.6)" fill="#208041"></path></g></g></svg>