<svg xmlns:xlink="http://www.w3.org/1999/xlink" xmlns="http://www.w3.org/2000/svg" width="32" height="25" viewBox="0 0 32 25" alt="retiro" style="color: rgb(32, 128, 65); height: 36px; width: 36px;"><g fill="none" fill-rule="evenodd"><g fill="#208041"><path d="M28.857 6.615c-.171 1.003-.785 2.267-1.725 2.671-1.082.467-2.294.158-3.239-.824l-.014-.014c-.164-.163-.377-.24-.59-.208-.23.028-.429.158-.55.36-.786 1.306-2.048 2.123-3.465 2.24-1.345.112-2.622-.438-3.517-1.5-.281-.335-.832-.336-1.116.002-.818.974-1.957 1.514-3.164 1.514-.115 0-.23-.005-.344-.014-1.42-.118-2.686-.935-3.472-2.241-.121-.203-.32-.335-.547-.362-.224-.028-.446.055-.603.218l-.125.126c-.939.902-2.123 1.154-3.17.676-.917-.419-1.51-1.663-1.674-2.644l-.025-.154h27.366l-.026.154zm-2.465 15.811l-6.922-.001v-7.07c0-.404-.334-.732-.746-.732l-7.083.015c-.338.067-.59.369-.59.717l-.002 7.07-7.042.001v-11.36l.13.006c.055.002.109.004.163.004.862 0 1.725-.29 2.507-.846l.092-.065.074.087c1.03 1.24 2.498 2.026 4.027 2.157 1.5.13 2.966-.354 4.119-1.369l.08-.07.082.07c1.161 1.021 2.624 1.5 4.126 1.368 1.524-.13 2.988-.915 4.016-2.152l.074-.089.093.067c.824.593 1.737.891 2.672.843l.131-.005-.001 11.354zm-8.416-.001h-5.434v-6.228h5.434v6.228zM3.724 1.574h22.95l1.778 3.313H1.947l1.777-3.313zM30.39 5.92l-.076-.247-2.506-5.24C27.68.166 27.424 0 27.14 0H3.26c-.284 0-.539.166-.667.433L.048 5.773.04 5.8c-.011.04-.022.083-.034.145L0 6.03l.004.568c.064 1.762.976 3.266 2.438 4.019l.07.036.014 12.709c.096.56.718.639 1.378.639h23.755v-.22l.032-.036c.126-.147.195-.335.195-.531V10.659l.07-.036c1.508-.781 2.444-2.402 2.444-4.23l-.011-.473z" transform="translate(-450 -327) translate(326 323.24) translate(103 4.43) translate(21.8)" fill="#208041"></path></g></g></svg>