<svg xmlns:xlink="http://www.w3.org/1999/xlink" xmlns="http://www.w3.org/2000/svg" width="24" height="24" viewBox="0 0 24 24" alt="Twitter" title="Twitter" class="sc-gATJxy eieRZA"><path fill="#FFFFFF" fill-rule="nonzero" d="M23.586 4.224c-.51.227-1.04.405-1.583.535a4.942 4.942 0 0 0 1.303-2.078.259.259 0 0 0-.379-.301 9.124 9.124 0 0 1-2.42 1 .64.64 0 0 1-.575-.143A4.944 4.944 0 0 0 16.66 2c-.522 0-1.05.082-1.567.242a4.798 4.798 0 0 0-3.231 3.46 5.294 5.294 0 0 0-.117 1.824.183.183 0 0 1-.199.2c-3.512-.327-6.679-2.021-8.917-4.771a.259.259 0 0 0-.424.033 4.957 4.957 0 0 0-.67 2.491c0 1.344.539 2.61 1.475 3.532a4.43 4.43 0 0 1-1.129-.437.259.259 0 0 0-.384.223 4.962 4.962 0 0 0 2.89 4.571 4.423 4.423 0 0 1-.94-.078.259.259 0 0 0-.295.333 4.961 4.961 0 0 0 3.917 3.378 9.12 9.12 0 0 1-5.113 1.555h-.573a.379.379 0 0 0-.37.286.393.393 0 0 0 .188.434 13.565 13.565 0 0 0 6.824 1.843c2.097 0 4.06-.417 5.831-1.24a12.88 12.88 0 0 0 4.267-3.201 14.043 14.043 0 0 0 2.613-4.383c.581-1.554.888-3.212.888-4.796v-.075c0-.255.115-.494.315-.657a9.789 9.789 0 0 0 1.968-2.162c.144-.216-.083-.486-.32-.38z"></path></svg>